<?xml version="1.0" standalone="no"?>
<!DOCTYPE svg PUBLIC "-//W3C//DTD SVG 20010904//EN"
 "http://www.w3.org/TR/2001/REC-SVG-20010904/DTD/svg10.dtd">
<svg version="1.0" xmlns="http://www.w3.org/2000/svg"
 width="264.000000pt" height="263.000000pt" viewBox="0 0 264.000000 263.000000"
 preserveAspectRatio="xMidYMid meet">
<metadata>
Created by potrace 1.16, written by Peter Selinger 2001-2019
</metadata>
<g transform="translate(0.000000,263.000000) scale(0.100000,-0.100000)"
fill="#000000" stroke="none">
<path d="M1104 2615 c-543 -95 -967 -509 -1080 -1055 -25 -118 -25 -373 -1
-492 54 -268 177 -499 367 -688 252 -252 565 -380 930 -380 368 0 680 128 935
384 265 266 398 607 382 981 -15 350 -137 626 -386 875 -196 195 -399 307
-661 365 -105 23 -379 29 -486 10z m527 -39 c318 -80 593 -273 772 -542 160
-241 225 -472 214 -773 -7 -215 -43 -355 -139 -544 -192 -377 -544 -627 -973
-693 -121 -19 -322 -14 -440 11 -508 106 -900 490 -1016 995 -29 123 -36 356
-15 482 55 336 240 643 511 846 136 102 362 202 527 233 168 32 400 26 559
-15z"/>
<path d="M401 1356 c-76 -76 -92 -98 -83 -109 9 -10 9 -16 0 -25 -10 -10 8
-33 80 -105 l92 -92 89 89 c80 80 88 91 88 126 0 35 -8 46 -86 124 l-86 86
-94 -94z m179 -11 l85 -85 -85 -85 -85 -85 -87 87 -88 88 82 82 c46 46 85 83
88 83 3 0 43 -38 90 -85z m-11 -191 c53 52 81 74 86 66 5 -8 -23 -43 -76 -96
l-84 -84 -87 87 c-48 48 -84 91 -81 96 3 5 41 -26 84 -69 l79 -79 79 79z"/>
<path d="M427 1332 c-31 -32 -57 -62 -57 -68 0 -13 112 -124 126 -124 5 0 36
27 69 60 l59 60 -64 65 c-35 36 -67 65 -70 65 -3 0 -31 -26 -63 -58z m123
-127 l-60 -60 -57 58 -58 57 60 60 59 60 58 -57 58 -58 -60 -60z"/>
<path d="M455 1300 l-39 -40 37 -37 37 -38 40 40 40 41 -38 37 -38 37 -39 -40z
m74 -11 l23 -31 -28 -29 -28 -29 -33 32 -33 32 27 28 c34 36 44 35 72 -3z"/>
<path d="M476 1271 c-3 -5 1 -14 8 -20 16 -13 32 2 21 19 -8 12 -22 13 -29 1z"/>
<path d="M787 1323 c-20 -19 -4 -32 46 -35 45 -3 52 -6 55 -25 3 -20 -2 -22
-50 -25 l-53 -3 0 -45 c0 -33 4 -45 15 -45 9 0 16 11 18 28 3 21 9 27 27 27
61 0 96 39 80 88 -9 31 -116 58 -138 35z"/>
<path d="M960 1236 c0 -80 3 -96 15 -96 13 0 15 15 13 92 -2 62 -7 93 -15 96
-10 3 -13 -20 -13 -92z"/>
<path d="M1020 1319 c0 -6 11 -25 25 -43 14 -18 25 -37 25 -42 -1 -5 -14 -25
-30 -44 -17 -19 -26 -38 -22 -42 13 -13 35 -1 58 33 l21 30 27 -36 c26 -33 56
-47 56 -24 0 5 -14 28 -31 49 l-31 39 30 37 c47 56 24 78 -25 24 l-27 -31 -24
31 c-23 29 -52 40 -52 19z"/>
<path d="M1204 1317 c-3 -8 -4 -49 -2 -93 l3 -79 65 0 c54 0 65 3 68 18 3 14
-4 17 -47 17 -44 0 -51 3 -51 20 0 17 7 20 45 20 33 0 45 4 45 15 0 11 -12 15
-45 15 -38 0 -45 3 -45 20 0 17 7 20 51 20 43 0 50 3 47 18 -3 14 -16 18 -66
20 -46 2 -64 -1 -68 -11z"/>
<path d="M1375 1317 c-3 -7 -5 -49 -3 -93 l3 -79 60 0 c47 0 60 3 60 15 0 10
-13 16 -42 18 l-42 3 -3 71 c-2 46 -7 73 -15 76 -7 2 -15 -3 -18 -11z"/>
<path d="M1666 1323 c-14 -14 -4 -29 29 -47 38 -21 49 -18 39 8 -7 19 -58 48
-68 39z"/>
<path d="M1796 1246 c-20 -46 -36 -89 -36 -95 0 -21 31 -11 40 14 8 21 16 25
50 25 27 0 40 -4 40 -14 0 -19 29 -41 39 -30 12 13 -61 178 -81 182 -11 2 -26
-22 -52 -82z m64 -2 c0 -8 -7 -14 -15 -14 -17 0 -18 2 -9 24 7 18 24 12 24
-10z"/>
<path d="M1947 1324 c-17 -17 -6 -34 23 -34 l29 0 3 -72 c2 -46 7 -73 16 -76
9 -3 12 16 12 72 l0 76 31 0 c24 0 30 4 27 18 -3 14 -16 18 -69 20 -35 2 -68
0 -72 -4z"/>
<path d="M2120 1235 l0 -95 65 0 c58 0 65 2 65 20 0 17 -7 20 -50 20 -43 0
-50 3 -50 20 0 17 7 20 45 20 33 0 45 4 45 15 0 11 -12 15 -45 15 -38 0 -45 3
-45 20 0 17 7 20 50 20 43 0 50 3 50 20 0 18 -7 20 -65 20 l-65 0 0 -95z"/>
<path d="M1590 1300 c-42 -42 -36 -107 13 -144 22 -16 29 -17 40 -7 10 10 7
16 -15 33 -19 13 -28 29 -28 48 0 28 22 60 41 60 5 0 9 7 9 15 0 21 -36 19
-60 -5z"/>
<path d="M1650 1230 c0 -16 7 -20 33 -20 l32 -1 -30 -24 c-22 -18 -27 -27 -18
-36 16 -16 49 4 69 42 23 45 13 59 -41 59 -38 0 -45 -3 -45 -20z"/>
</g>
</svg>
